<svg id="ARTWORK" xmlns="http://www.w3.org/2000/svg" viewBox="0 0 633.03 686.49"><defs><style>.cls-1{fill:#fff;}.cls-2{fill:#001489;}</style></defs><path class="cls-1" d="M473.75,374.58l-14.68-.16c-4.15-.08-6.07,3.75-3.67,6.87.55.71,1.35,1.59,2,2.39a15.25,15.25,0,0,1,3,11.49c-3.51,31.77-9,65.53-13.64,98.49a1.65,1.65,0,0,1-1.68,1.51,1.77,1.77,0,0,1-1.75-1.51c-5.91-33.36-11.82-66.88-17.72-100.32a14,14,0,0,1,2.31-10.46c.48-.72,1-1.51,1.52-2.23a4.09,4.09,0,0,0-3.27-6.47l-28-.16a4.21,4.21,0,0,0-4.07,2.4,4.07,4.07,0,0,0,.72,4.31c1.2,1.43,2.48,2.95,3.75,4.39,1.68,2.07,2.72,4.23,3.75,9.1,6.79,32.56,12.53,69.67,19,105.74,1.59,8.46,3.11,16.92,4.63,25.38a99.76,99.76,0,0,1,1.43,15.4c.4,30.65.56,61.7.8,91.54,0,3.52-1.12,6.23-3,8-1,1-2,1.91-3,2.79-3,2.87-1,8.38,3.27,8.38l30.72.4a4.78,4.78,0,0,0,3-8.38c-1-1-2.24-2-3.35-3a10.24,10.24,0,0,1-3.36-7.43c.56-37,.16-75.1.48-112.45a104.31,104.31,0,0,1,1.12-15c5.51-37.75,11.09-76.06,16.84-112.85a15.16,15.16,0,0,1,2.87-7.26c1.12-1.44,2.24-3,3.19-4.15A4.15,4.15,0,0,0,473.75,374.58Z" transform="translate(-237.97 -182.51)"/><path class="cls-1" d="M708.39,376.18l-15.64-.08c-3.59,0-5.19,3.91-3,6.7.72.88,1.44,1.76,2.16,2.56,2.47,3.27,3.59,7,2.95,12.77-3.19,30.72-8.54,64.64-12.93,97.84a1.66,1.66,0,0,1-1.67,1.52,1.8,1.8,0,0,1-1.76-1.44c-6.06-33.68-12.21-67.28-18-99.36-1-5.19-.16-9,1.92-12.13.56-.72,1-1.52,1.6-2.24,1.67-2.71,0-6.46-4.07-6.46l-27.22-.16c-4,0-5.67,4.15-3.43,6.7,1.28,1.52,2.55,3,3.83,4.39,1.68,1.92,2.79,4.39,3.67,9.1C643,430,649.89,466.2,656.59,502.52c1.6,8.46,3.2,16.92,4.71,25.3a100.44,100.44,0,0,1,1.6,15.56c.56,30.8.88,61.93,1.28,91.62.08,3.91-1,6.7-3,8.46-1,.88-2,1.91-3,2.79-3.35,3-1.2,8.3,3.75,8.38l29.53.4c5.19.08,7-5.51,3.67-8.38-1-1-2.23-2-3.35-2.95-2.08-1.84-3.43-4.71-3.43-8.62.4-36.16-.24-74.38-.16-112a106.31,106.31,0,0,1,1-15.09c5.26-38,10.69-76.45,15.88-111.89.72-4.71,1.67-7.1,3.11-8.94,1.12-1.43,2.23-2.87,3.27-4.39C713.9,379.93,712.06,376.34,708.39,376.18Z" transform="translate(-237.97 -182.51)"/><path class="cls-1" d="M593.15,576.1a3.61,3.61,0,1,0-7.19-.56c-2.47,16.36-4.86,33.84-7.34,46-3.43,16.68-14,25.46-26.1,25.46h-1.75c-4.15,0-6.47-3.19-5.67-7.18,5.59-31.13,11.41-63.13,17.24-95q11.25-62.14,22.43-124.27c2.39-13.56,4.86-27.13,7.18-40.54a3.59,3.59,0,0,0-3.67-4.55c-20.11-.16-40.87.08-60.58-.48a3.69,3.69,0,0,0-3.75,3.91c-.56,20-.32,41.34-.32,61.54,0,4.54,5.75,5,6.39.47,2.55-14.68,5.66-30.16,8.22-40.62,3.27-13.33,11.49-19.63,21.23-19.23h2.87c2.71.08,5.11,1.27,4.55,4.55-2.4,13.4-4.87,27.21-7.34,40.94Q548,490.27,536.48,554.15c-5.66,31.45-11.41,62.89-17,94-.48,2.71.8,4.47,3.67,4.55,22,.31,44.38.55,66.32.79,2.64,0,4.31-1.67,4.31-4.62C593.63,624.94,592.91,599.8,593.15,576.1Z" transform="translate(-237.97 -182.51)"/><path class="cls-2" d="M870.72,727.22C863.94,598.81,858.11,449.57,856,328.66c-1.6-89.39-42.94-131.53-128.89-134.4-91.23-3-255.31-8.38-356.67-11.65C287.88,180,236.72,229.93,238,317.32c1.75,120.44,4.79,335.68,6.22,436.88,1,68.15,35.36,104.07,101.28,107.74,130.17,7.18,270.47,12.45,422.27-2.64C832.49,852.84,874.87,804.8,870.72,727.22ZM476.94,381.37c-.95,1.19-2.07,2.71-3.19,4.15a15.16,15.16,0,0,0-2.87,7.26c-5.75,36.79-11.33,75.1-16.84,112.85a104.31,104.31,0,0,0-1.12,15c-.32,37.35.08,75.42-.48,112.45a10.24,10.24,0,0,0,3.36,7.43c1.11,1,2.31,2,3.35,3a4.78,4.78,0,0,1-3,8.38l-30.72-.4c-4.23,0-6.31-5.51-3.27-8.38,1-.88,2-1.84,3-2.79,1.91-1.76,3-4.47,3-8-.24-29.84-.4-60.89-.8-91.54a99.76,99.76,0,0,0-1.43-15.4c-1.52-8.46-3-16.92-4.63-25.38-6.47-36.07-12.21-73.18-19-105.74-1-4.87-2.07-7-3.75-9.1-1.27-1.44-2.55-3-3.75-4.39a4.07,4.07,0,0,1-.72-4.31,4.21,4.21,0,0,1,4.07-2.4l28,.16a4.09,4.09,0,0,1,3.27,6.47c-.48.72-1,1.51-1.52,2.23a14,14,0,0,0-2.31,10.46c5.9,33.44,11.81,67,17.72,100.32a1.77,1.77,0,0,0,1.75,1.51,1.65,1.65,0,0,0,1.68-1.51c4.63-33,10.13-66.72,13.64-98.49a15.25,15.25,0,0,0-3-11.49c-.64-.8-1.44-1.68-2-2.39-2.4-3.12-.48-7,3.67-6.87l14.68.16A4.15,4.15,0,0,1,476.94,381.37ZM589.47,653.51c-21.94-.24-44.29-.48-66.32-.79-2.87-.08-4.15-1.84-3.67-4.55,5.59-31.13,11.34-62.57,17-94q11.61-63.93,23.07-127.69c2.47-13.73,4.94-27.54,7.34-40.94.56-3.28-1.84-4.47-4.55-4.55h-2.87c-9.74-.4-18,5.9-21.23,19.23-2.56,10.46-5.67,25.94-8.22,40.62-.64,4.55-6.39,4.07-6.39-.47,0-20.2-.24-41.51.32-61.54a3.69,3.69,0,0,1,3.75-3.91c19.71.56,40.47.32,60.58.48a3.59,3.59,0,0,1,3.67,4.55c-2.32,13.41-4.79,27-7.18,40.54q-11.26,62.13-22.43,124.27c-5.83,31.92-11.65,63.92-17.24,95-.8,4,1.52,7.18,5.67,7.18h1.75c12.13,0,22.67-8.78,26.1-25.46,2.48-12.13,4.87-29.61,7.34-46a3.61,3.61,0,1,1,7.19.56c-.24,23.7.48,48.84.63,72.79C593.78,651.84,592.11,653.51,589.47,653.51ZM711.58,382.8c-1,1.52-2.15,3-3.27,4.39-1.44,1.84-2.39,4.23-3.11,8.94C700,431.57,694.58,470,689.32,508a106.31,106.31,0,0,0-1,15.09c-.08,37.59.56,75.81.16,112,0,3.91,1.35,6.78,3.43,8.62,1.12,1,2.31,1.91,3.35,2.95,3.35,2.87,1.52,8.46-3.67,8.38l-29.53-.4c-4.95-.08-7.1-5.35-3.75-8.38,1-.88,1.92-1.91,3-2.79,1.92-1.76,3-4.55,3-8.46-.4-29.69-.72-60.82-1.28-91.62a100.44,100.44,0,0,0-1.6-15.56c-1.51-8.38-3.11-16.84-4.71-25.3C649.89,466.2,643,430,636.8,395.89c-.88-4.71-2-7.18-3.67-9.1-1.28-1.43-2.55-2.87-3.83-4.39-2.24-2.55-.56-6.7,3.43-6.7l27.22.16c4.07,0,5.74,3.75,4.07,6.46-.56.72-1,1.52-1.6,2.24-2.08,3.11-2.87,6.94-1.92,12.13,5.83,32.08,12,65.68,18,99.36a1.8,1.8,0,0,0,1.76,1.44A1.66,1.66,0,0,0,682,496c4.39-33.2,9.74-67.12,12.93-97.84.64-5.75-.48-9.5-2.95-12.77-.72-.8-1.44-1.68-2.16-2.56-2.23-2.79-.63-6.7,3-6.7l15.64.08C712.06,376.34,713.9,379.93,711.58,382.8Z" transform="translate(-237.97 -182.51)"/></svg>